<?xml version="1.0" standalone="no"?>
<!DOCTYPE svg PUBLIC "-//W3C//DTD SVG 20010904//EN"
 "http://www.w3.org/TR/2001/REC-SVG-20010904/DTD/svg10.dtd">
<svg version="1.0" xmlns="http://www.w3.org/2000/svg"
 width="209.000000pt" height="209.000000pt" viewBox="0 0 209.000000 209.000000"
 preserveAspectRatio="xMidYMid meet">
<metadata>
Created by potrace 1.11, written by Peter Selinger 2001-2013
</metadata>
<g transform="translate(0.000000,209.000000) scale(0.100000,-0.100000)"
fill="#000000" stroke="none">
<path d="M0 1050 l0 -760 1045 0 1045 0 0 760 0 760 -1045 0 -1045 0 0 -760z
m1880 305 c0 -3 -11 -17 -25 -30 -22 -23 -32 -25 -110 -25 -50 0 -85 4 -85 10
0 6 36 10 88 10 76 0 89 3 102 20 14 19 30 27 30 15z m-1560 -40 c0 -3 -50
-55 -111 -116 -61 -61 -108 -113 -104 -117 4 -4 10 -1 12 6 5 14 83 17 83 3 0
-5 -6 -11 -12 -14 -8 -2 -1 -15 20 -34 36 -34 39 -47 17 -69 -13 -13 -22 -7
-80 51 l-65 65 112 114 c103 104 128 126 128 111z m103 -7 c4 -10 8 -9 16 2 5
8 13 11 17 8 3 -4 -2 -15 -12 -25 -12 -13 -19 -14 -22 -5 -2 7 -21 12 -43 12
-21 0 -39 5 -39 10 0 15 77 12 83 -2z m217 2 c0 -5 -22 -10 -50 -10 -27 0 -50
5 -50 10 0 6 23 10 50 10 28 0 50 -4 50 -10z m320 5 c0 -3 -55 -60 -122 -127
-67 -67 -117 -123 -110 -126 17 -5 15 -30 -3 -48 -13 -14 -19 -11 -55 26 l-40
42 -29 -31 c-16 -17 -32 -31 -35 -31 -3 0 -6 18 -6 40 l0 40 69 0 c45 0 71 -4
73 -12 3 -7 58 42 124 109 108 111 134 133 134 118z m300 -5 c0 -5 -22 -10
-50 -10 -27 0 -50 5 -50 10 0 6 23 10 50 10 28 0 50 -4 50 -10z m240 0 c0 -5
-18 -10 -40 -10 -22 0 -40 -4 -40 -10 0 -5 -13 -10 -30 -10 -16 0 -30 -4 -30
-10 0 -5 -7 -10 -15 -10 -20 0 -65 -45 -65 -65 0 -8 -4 -15 -10 -15 -21 0 -9
32 25 65 19 19 41 35 50 35 8 0 15 5 15 10 0 6 14 10 30 10 17 0 30 5 30 10 0
6 18 10 40 10 22 0 40 -4 40 -10z m380 -96 c0 -3 -7 -12 -15 -21 -20 -19 -32
-10 -14 11 14 15 29 21 29 10z m-1440 -20 c0 -3 -7 -12 -15 -21 -20 -19 -32
-10 -14 11 14 15 29 21 29 10z m1000 -24 c0 -5 -4 -10 -10 -10 -5 0 -10 5 -10
10 0 6 5 10 10 10 6 0 10 -4 10 -10z m40 0 c0 -5 -4 -10 -10 -10 -5 0 -10 5
-10 10 0 6 5 10 10 10 6 0 10 -4 10 -10z m40 0 c0 -5 -4 -10 -10 -10 -5 0 -10
5 -10 10 0 6 5 10 10 10 6 0 10 -4 10 -10z m40 0 c0 -5 -4 -10 -10 -10 -5 0
-10 5 -10 10 0 6 5 10 10 10 6 0 10 -4 10 -10z m-160 -40 c0 -5 -4 -10 -10
-10 -5 0 -10 5 -10 10 0 6 5 10 10 10 6 0 10 -4 10 -10z m40 0 c0 -5 -4 -10
-10 -10 -5 0 -10 5 -10 10 0 6 5 10 10 10 6 0 10 -4 10 -10z m40 0 c0 -5 -4
-10 -10 -10 -5 0 -10 5 -10 10 0 6 5 10 10 10 6 0 10 -4 10 -10z m40 0 c0 -5
-4 -10 -10 -10 -5 0 -10 5 -10 10 0 6 5 10 10 10 6 0 10 -4 10 -10z m40 0 c0
-5 -4 -10 -10 -10 -5 0 -10 5 -10 10 0 6 5 10 10 10 6 0 10 -4 10 -10z m-1240
-80 c0 -49 -1 -50 -30 -50 -29 0 -30 1 -30 50 0 49 1 50 30 50 29 0 30 -1 30
-50z m195 25 c29 -28 31 -41 11 -61 -21 -21 -35 -17 -66 16 -15 17 -33 30 -40
30 -7 0 -25 -13 -40 -30 -15 -16 -31 -30 -34 -30 -3 0 -6 23 -6 50 l0 50 75 0
c67 0 79 -3 100 -25z m345 16 c0 -5 -5 -11 -12 -13 -8 -3 -3 -14 14 -31 15
-15 30 -27 33 -27 3 0 5 18 5 40 0 38 2 40 30 40 29 0 30 -1 30 -50 l0 -50
-36 0 c-25 0 -43 -7 -55 -21 l-18 -21 -45 46 c-49 48 -53 59 -33 81 13 16 87
21 87 6z m200 -41 l0 -50 -40 0 -40 0 0 50 0 50 40 0 40 0 0 -50z m180 4 c0
-27 -6 -51 -15 -60 -13 -13 -21 -8 -70 40 -30 31 -55 58 -55 61 0 3 32 5 70 5
l70 0 0 -46z m140 36 c0 -14 38 -12 43 3 2 7 8 8 13 3 5 -5 4 -11 -3 -13 -27
-10 -11 -23 27 -23 22 0 40 5 40 10 0 6 9 10 20 10 11 0 20 5 20 10 0 6 23 10
50 10 28 0 50 -2 50 -5 0 -13 -50 -55 -65 -55 -8 0 -15 -4 -15 -10 0 -5 -13
-10 -30 -10 -16 0 -30 -4 -30 -10 0 -5 -18 -10 -40 -10 -22 0 -40 5 -40 10 0
6 -13 10 -30 10 -16 0 -30 5 -30 10 0 6 -7 10 -15 10 -15 0 -65 42 -65 55 0 3
23 5 50 5 28 0 50 -4 50 -10z m100 0 c0 -5 -4 -10 -10 -10 -5 0 -10 5 -10 10
0 6 5 10 10 10 6 0 10 -4 10 -10z m260 -15 c0 -22 -39 -75 -55 -75 -3 0 -5 23
-5 50 0 49 1 50 30 50 25 0 30 -4 30 -25z m120 20 c0 -7 -88 -95 -95 -95 -3 0
-5 23 -5 50 l0 50 50 0 c28 0 50 -2 50 -5z"/>
</g>
</svg>
