<?xml version="1.0" standalone="no"?>
<!DOCTYPE svg PUBLIC "-//W3C//DTD SVG 20010904//EN"
 "http://www.w3.org/TR/2001/REC-SVG-20010904/DTD/svg10.dtd">
<svg version="1.0" xmlns="http://www.w3.org/2000/svg"
 width="600.000000pt" height="600.000000pt" viewBox="0 0 600.000000 600.000000"
 preserveAspectRatio="xMidYMid meet">
<metadata>
Created by potrace 1.11, written by Peter Selinger 2001-2013
</metadata>
<g transform="translate(0.000000,600.000000) scale(0.100000,-0.100000)"
fill="#000000" stroke="none">
<path d="M2738 5580 c-269 -31 -543 -102 -772 -199 -653 -280 -1170 -810
-1429 -1466 -167 -422 -223 -882 -162 -1340 74 -556 344 -1096 754 -1506 499
-499 1172 -779 1871 -779 154 0 426 34 612 76 l68 16 0 710 c0 390 -3 708 -7
706 -260 -133 -431 -178 -679 -178 -317 0 -583 96 -839 301 -139 112 -257 264
-345 444 -104 211 -135 368 -127 625 6 192 21 271 82 425 187 480 597 789
1125 846 221 24 483 -28 713 -142 l77 -39 0 710 0 709 -40 11 c-22 6 -120 25
-218 41 -153 27 -207 32 -392 34 -118 2 -250 0 -292 -5z"/>
<path d="M3690 3550 l0 -500 553 0 552 0 493 493 c270 270 492 495 492 500 0
4 -470 7 -1045 7 l-1045 0 0 -500z"/>
<path d="M3685 2818 c-3 -7 -4 -231 -3 -498 l3 -485 1057 -3 1056 -2 -501 500
-502 500 -553 0 c-433 0 -554 -3 -557 -12z"/>
</g>
</svg>
